<svg width="48" height="48" viewBox="0 0 48 48" fill="none" xmlns="http://www.w3.org/2000/svg">
<path d="M24.4 17.9999L20.4 13.9999H26C28.2 13.9999 30 15.7999 30 17.9999V23.5999L26 19.5999V17.9999H24.4ZM46 17.9999V13.9999H38C35.8 13.9999 34 15.7999 34 17.9999V21.9999C34 24.1999 35.8 25.9999 38 25.9999H42V29.9999H36.4L40.4 33.9999H42C44.2 33.9999 46 32.1999 46 29.9999V25.9999C46 23.7999 44.2 21.9999 42 21.9999H38V17.9999H46ZM44.2 42.9999L41.6 45.5999L28.8 32.7999C28.2 33.3999 27.2 33.9999 26 33.9999H18V21.7999L14 17.7999V33.9999H10V25.9999H6V33.9999H2V17.9999C2 15.7999 3.8 13.9999 6 13.9999H10.2L2.2 5.9999L4.8 3.3999L44.2 42.9999ZM10 17.9999H6V21.9999H10V17.9999ZM26 29.7999L22 25.7999V29.9999H26V29.7999Z" fill="white"/>
</svg>
