<svg width="49" height="48" viewBox="0 0 49 48" fill="none" xmlns="http://www.w3.org/2000/svg">
<path d="M36.667 16H12.667V12H36.667V16ZM36.667 22H12.667V18H36.667V22ZM36.667 28H12.667V24H36.667V28ZM44.667 8C44.667 6.93913 44.2456 5.92172 43.4954 5.17157C42.7453 4.42143 41.7279 4 40.667 4H8.66699C7.60613 4 6.58871 4.42143 5.83856 5.17157C5.08842 5.92172 4.66699 6.93913 4.66699 8V32C4.66699 33.0609 5.08842 34.0783 5.83856 34.8284C6.58871 35.5786 7.60613 36 8.66699 36H36.667L44.667 44V8Z" fill="white"/>
</svg>
