<svg width="49" height="48" viewBox="0 0 49 48" fill="none" xmlns="http://www.w3.org/2000/svg">
<path d="M24.667 4C27.2934 4 29.8941 4.51732 32.3207 5.52241C34.7472 6.5275 36.952 8.00069 38.8091 9.85786C40.6663 11.715 42.1395 13.9198 43.1446 16.3463C44.1497 18.7728 44.667 21.3736 44.667 24C44.667 29.3043 42.5599 34.3914 38.8091 38.1421C35.0584 41.8929 29.9713 44 24.667 44C22.0406 44 19.4398 43.4827 17.0133 42.4776C14.5868 41.4725 12.382 39.9993 10.5249 38.1421C6.77413 34.3914 4.66699 29.3043 4.66699 24C4.66699 18.6957 6.77413 13.6086 10.5249 9.85786C14.2756 6.10714 19.3627 4 24.667 4ZM24.667 8C23.3409 8 22.0691 8.52678 21.1315 9.46447C20.1938 10.4021 19.667 11.6739 19.667 13C19.667 14.3261 20.1938 15.5979 21.1315 16.5355C22.0691 17.4732 23.3409 18 24.667 18C25.9931 18 27.2648 17.4732 28.2025 16.5355C29.1402 15.5979 29.667 14.3261 29.667 13C29.667 11.6739 29.1402 10.4021 28.2025 9.46447C27.2648 8.52678 25.9931 8 24.667 8ZM9.46699 19.06C8.60699 21.68 10.047 24.5 12.667 25.36C15.307 26.2 18.127 24.78 18.967 22.14C19.827 19.52 18.387 16.7 15.767 15.84C13.147 15 10.307 16.42 9.46699 19.06ZM39.887 19C39.027 16.42 36.207 15 33.587 15.84C30.947 16.68 29.507 19.5 30.367 22.14C31.227 24.76 34.047 26.2 36.667 25.34C39.287 24.5 40.727 21.66 39.887 19ZM15.287 36.92C17.507 38.56 20.667 38.06 22.267 35.82C23.887 33.58 23.387 30.46 21.147 28.84C18.927 27.22 15.787 27.72 14.167 29.94C12.547 32.18 13.047 35.3 15.287 36.92ZM34.067 36.92C36.307 35.3 36.807 32.18 35.187 29.94C33.567 27.7 30.427 27.2 28.207 28.84C25.967 30.46 25.467 33.58 27.087 35.82C28.667 38.06 31.847 38.54 34.067 36.92ZM24.667 21C23.8713 21 23.1083 21.3161 22.5457 21.8787C21.9831 22.4413 21.667 23.2043 21.667 24C21.667 24.7956 21.9831 25.5587 22.5457 26.1213C23.1083 26.6839 23.8713 27 24.667 27C25.4626 27 26.2257 26.6839 26.7883 26.1213C27.3509 25.5587 27.667 24.7956 27.667 24C27.667 23.2043 27.3509 22.4413 26.7883 21.8787C26.2257 21.3161 25.4626 21 24.667 21Z" fill="white"/>
</svg>
