<svg width="49" height="48" viewBox="0 0 49 48" fill="none" xmlns="http://www.w3.org/2000/svg">
<path d="M38.3335 6H10.3335C9.27263 6 8.25521 6.42143 7.50507 7.17157C6.75492 7.92172 6.3335 8.93913 6.3335 10V38C6.3335 39.0609 6.75492 40.0783 7.50507 40.8284C8.25521 41.5786 9.27263 42 10.3335 42H38.3335C39.3944 42 40.4118 41.5786 41.1619 40.8284C41.9121 40.0783 42.3335 39.0609 42.3335 38V10C42.3335 8.93913 41.9121 7.92172 41.1619 7.17157C40.4118 6.42143 39.3944 6 38.3335 6ZM24.3335 27H22.3335V30H19.3335V27H13.3335V18H16.3335V24H19.3335V18H22.3335V24H24.3335V27ZM36.3335 30H32.7335L29.1335 25.6V30H26.3335V18H29.3335V22.4L32.7335 18H36.3335L31.9335 24L36.3335 30Z" fill="white"/>
</svg>
