<svg width="20" height="44" viewBox="0 0 20 44" fill="none" xmlns="http://www.w3.org/2000/svg">
<path d="M17.3668 14.635L14.0919 15.22L16.3752 17.875L18.0168 17.575L17.3668 14.635ZM11.6419 15.655L10.0002 15.9475L12.2919 18.595L13.9252 18.3025L11.6419 15.655ZM7.55852 16.375L5.91685 16.6825L8.20852 19.33L9.84185 19.0375L7.55852 16.375ZM3.46685 17.125L2.65019 17.2675C2.21717 17.3454 1.83619 17.5747 1.59089 17.9052C1.34559 18.2356 1.25602 18.6402 1.34186 19.03L1.66686 20.5L5.75019 19.7725L3.46685 17.125ZM1.66686 20.5V28C1.66686 28.8325 2.41685 29.5 3.33352 29.5H16.6668C17.5918 29.5 18.3335 28.8325 18.3335 28V20.5H1.66686Z" fill="white"/>
</svg>
